<svg preserveAspectRatio="none" width="100%" height="100%" overflow="visible" style="display: block;" viewBox="0 0 28 28" fill="none" xmlns="http://www.w3.org/2000/svg">
<g id="Icon">
<path id="Vector" d="M11.6667 23.3333L10.2083 20.4167L7 21" stroke="var(--stroke-0, #DDA783)" stroke-width="1.75" stroke-linecap="round" stroke-linejoin="round"/>
<path id="Vector_2" d="M11.6667 4.66667L10.2083 7.58333L7 7" stroke="var(--stroke-0, #DDA783)" stroke-width="1.75" stroke-linecap="round" stroke-linejoin="round"/>
<path id="Vector_3" d="M16.3333 23.3333L17.7917 20.4167L21 21" stroke="var(--stroke-0, #DDA783)" stroke-width="1.75" stroke-linecap="round" stroke-linejoin="round"/>
<path id="Vector_4" d="M16.3333 4.66667L17.7917 7.58333L21 7" stroke="var(--stroke-0, #DDA783)" stroke-width="1.75" stroke-linecap="round" stroke-linejoin="round"/>
<path id="Vector_5" d="M19.8333 24.5L16.3333 17.5H11.6667" stroke="var(--stroke-0, #DDA783)" stroke-width="1.75" stroke-linecap="round" stroke-linejoin="round"/>
<path id="Vector_6" d="M19.8333 3.5L16.3333 10.5L18.0833 14" stroke="var(--stroke-0, #DDA783)" stroke-width="1.75" stroke-linecap="round" stroke-linejoin="round"/>
<path id="Vector_7" d="M2.33333 14H9.91667L11.6667 10.5" stroke="var(--stroke-0, #DDA783)" stroke-width="1.75" stroke-linecap="round" stroke-linejoin="round"/>
<path id="Vector_8" d="M23.3333 11.6667L21.5833 14L23.3333 16.3333" stroke="var(--stroke-0, #DDA783)" stroke-width="1.75" stroke-linecap="round" stroke-linejoin="round"/>
<path id="Vector_9" d="M25.6667 14H18.0833L16.3333 17.5" stroke="var(--stroke-0, #DDA783)" stroke-width="1.75" stroke-linecap="round" stroke-linejoin="round"/>
<path id="Vector_10" d="M4.66667 11.6667L6.41667 14L4.66667 16.3333" stroke="var(--stroke-0, #DDA783)" stroke-width="1.75" stroke-linecap="round" stroke-linejoin="round"/>
<path id="Vector_11" d="M8.16667 24.5L11.6667 17.5L9.91667 14" stroke="var(--stroke-0, #DDA783)" stroke-width="1.75" stroke-linecap="round" stroke-linejoin="round"/>
<path id="Vector_12" d="M8.16667 3.5L11.6667 10.5H16.3333" stroke="var(--stroke-0, #DDA783)" stroke-width="1.75" stroke-linecap="round" stroke-linejoin="round"/>
</g>
</svg>
